HIERARCHY
ROOT Hips
{
	OFFSET 0.00000 0.00000 0.00000
	CHANNELS 6 Xposition Yposition Zposition Zrotation Yrotation Xrotation 
	JOINT LHipJoint
	{
		OFFSET 0 0 0
		CHANNELS 3 Zrotation Yrotation Xrotation
		JOINT LeftHip
		{
			OFFSET 1.53794 -1.55850 0.93568
			CHANNELS 3 Zrotation Yrotation Xrotation
			JOINT LeftKnee
			{
				OFFSET 2.28545 -6.27922 0.00000
				CHANNELS 3 Zrotation Yrotation Xrotation
				JOINT LeftAnkle
				{
					OFFSET 2.37329 -6.52057 0.00000
					CHANNELS 3 Zrotation Yrotation Xrotation
					JOINT LeftToe
					{
						OFFSET 0.14846 -0.40788 2.09160
						CHANNELS 3 Zrotation Yrotation Xrotation
						End Site
						{
							OFFSET 0.00000 -0.00000 1.07536
						}
					}
				}
			}
		}
	}
	JOINT RHipJoint
	{
		OFFSET 0 0 0
		CHANNELS 3 Zrotation Yrotation Xrotation
		JOINT RightHip
		{
			OFFSET -1.78290 -1.55850 0.93568
			CHANNELS 3 Zrotation Yrotation Xrotation
			JOINT RightKnee
			{
				OFFSET -2.24144 -6.15831 0.00000
				CHANNELS 3 Zrotation Yrotation Xrotation
				JOINT RightAnkle
				{
					OFFSET -2.35091 -6.45907 0.00000
					CHANNELS 3 Zrotation Yrotation Xrotation
					JOINT RightToe
					{
						OFFSET -0.14428 -0.39641 2.07944
						CHANNELS 3 Zrotation Yrotation Xrotation
						End Site
						{
							OFFSET -0.00000 -0.00000 1.06864
						}
					}
				}
			}
		}
	}
	JOINT lowerback
	{
		OFFSET 0 0 0
		CHANNELS 3 Zrotation Yrotation Xrotation
		JOINT Chest
		{
			OFFSET -0.08841 2.11430 -0.15818
			CHANNELS 3 Zrotation Yrotation Xrotation
			JOINT Chest2
			{
				OFFSET -0.00033 2.12605 -0.08097
				CHANNELS 3 Zrotation Yrotation Xrotation
				JOINT lowerneck
				{
					OFFSET 0 0 0
					CHANNELS 3 Zrotation Yrotation Xrotation
					JOINT Neck
					{
						OFFSET 0.04431 1.59447 0.43193
						CHANNELS 3 Zrotation Yrotation Xrotation
						JOINT Head
						{
							OFFSET 0.00455 1.62017 -0.58852
							CHANNELS 3 Zrotation Yrotation Xrotation
							End Site
							{
								OFFSET -0.00920 1.72955 -0.25850
							}
						}
					}
				}
				JOINT LeftCollar
				{
					OFFSET 0 0 0
					CHANNELS 3 Zrotation Yrotation Xrotation
					JOINT LeftShoulder
					{
						OFFSET 2.86490 1.49927 -0.33774
CHANNELS 3 Zrotation Xrotation Yrotation
						JOINT LeftElbow
						{
OFFSET 0 -4.874080 0.000000
CHANNELS 3 Zrotation Xrotation Yrotation
							JOINT LeftWrist
							{
OFFSET 0 -2.767290 0.000000
CHANNELS 3 Zrotation Xrotation Yrotation
								JOINT lhand
								{
									OFFSET 0 0 0
CHANNELS 3 Zrotation Xrotation Yrotation
									JOINT LFingers
									{
OFFSET 0 -0.989220 0.000000
CHANNELS 3 Zrotation Xrotation Yrotation
										End Site
										{
OFFSET 0 -0.797530 0.000000
										}
									}
								}
								JOINT LThumb
								{
OFFSET 0 0.000000 0.000000
CHANNELS 3 Zrotation Xrotation Yrotation
									End Site
									{
OFFSET 0 -0.809720 0.809720
									}
								}
							}
						}
					}
				}
				JOINT RightCollar
				{
					OFFSET 0 0 0
					CHANNELS 3 Zrotation Yrotation Xrotation
					JOINT RightShoulder
					{
						OFFSET -2.94414 1.45463 -0.25291
CHANNELS 3 Zrotation Xrotation Yrotation
						JOINT RightElbow
						{
OFFSET 0 -4.714040 0.000000
CHANNELS 3 Zrotation Xrotation Yrotation
							JOINT RightWrist
							{
OFFSET 0 -2.834680 0.000000
CHANNELS 3 Zrotation Xrotation Yrotation
								JOINT rhand
								{
									OFFSET 0 0 0
CHANNELS 3 Zrotation Xrotation Yrotation
									JOINT RFingers
									{
OFFSET 0 -0.868200 0.000000
CHANNELS 3 Zrotation Xrotation Yrotation
										End Site
										{
OFFSET 0 -0.699960 0.000000
										}
									}
								}
								JOINT RThumb
								{
OFFSET 0 0.000000 0.000000
CHANNELS 3 Zrotation Xrotation Yrotation
									End Site
									{
OFFSET 0 -0.710650 0.710650
									}
								}
							}
						}
					}
				}
			}
		}
	}
}
MOTION
Frames: 9
Frame Time: 0.008333333333333333
2.547374 14.796891 -3.836706 175.064957 -23.299586 -175.096701 0.000000 0.000000 0.000000 -8.608491 -4.423941 -5.188152 20.613502 19.984276 91.794483 -0.388248 14.531751 4.871525 0.029979 1.117371 3.071832 0.000000 0.000000 0.000000 -0.497133 19.002172 -47.679465 -11.245654 -18.048169 63.570701 -0.186588 -4.016274 7.751741 -2.119471 9.109992 -26.140488 -8.008204 -5.495551 6.386117 0.129020 -7.979261 3.786566 4.892331 -4.263290 1.489013 -1.923558 1.769395 -30.527979 1.554539 -2.416518 45.656274 -0.157676 -2.427308 27.643479 0.000000 0.000000 0.000000 44.705668 32.828883 -65.003443 92.045170 -59.970776 61.770774 18.321078 21.972793 -3.503938 0.000000 0.000000 0.000000 -7.125000 0.000000 0.000000 -6.782905 33.613640 -1.905181 0.000000 0.000000 0.000000 -6.974085 37.366440 18.348827 -60.324298 -56.387310 -34.612877 -12.730219 3.483830 6.645424 0.000000 0.000000 0.000000 7.125000 0.000000 0.000000 11.804573 36.565915 2.493527
2.558066 14.744552 -3.914672 175.517771 -23.045043 -175.592679 0.000000 0.000000 0.000000 -8.406738 -4.545965 -5.920970 21.079806 19.969018 93.159159 -0.458194 14.954764 4.206528 0.030509 1.126999 3.098395 0.000000 0.000000 0.000000 0.134759 19.241785 -47.749590 -11.579156 -18.205254 64.646546 -0.171980 -3.635158 7.413621 -2.161489 9.194224 -26.405091 -7.630992 -5.322156 6.975899 0.183310 -7.797884 4.026799 4.796724 -4.179300 1.340912 -1.905988 1.674591 -30.752103 1.517482 -2.373934 45.416408 -0.146527 -2.367644 27.432081 0.000000 0.000000 0.000000 43.269945 32.233442 -64.061723 90.347373 -59.992723 60.300885 18.393883 21.905195 -4.001515 0.000000 0.000000 0.000000 -7.125000 0.000000 0.000000 -6.773612 34.136452 -1.816184 0.000000 0.000000 0.000000 -6.733881 35.609881 18.874237 -59.226008 -56.095371 -33.698992 -13.038910 3.719529 6.957112 0.000000 0.000000 0.000000 7.125000 0.000000 0.000000 11.604160 36.896465 2.353096
2.567309 14.695021 -3.990953 175.931285 -22.818571 -176.009466 0.000000 0.000000 0.000000 -8.260597 -4.730308 -6.756383 21.531277 19.936297 94.482732 -0.528790 15.370773 3.519546 0.030182 1.121232 3.082526 0.000000 0.000000 0.000000 0.713965 19.440976 -47.793150 -11.884527 -18.336957 65.617343 -0.155333 -3.262464 7.019535 -2.208649 9.286907 -26.697619 -7.267787 -5.169593 7.478864 0.230183 -7.633174 4.260264 4.685840 -4.105800 1.241153 -1.873881 1.584485 -30.969372 1.469136 -2.334423 45.174680 -0.147345 -2.309073 27.223401 0.000000 0.000000 0.000000 41.916841 31.518770 -63.211871 88.616421 -59.975871 58.802009 18.479572 21.774392 -4.552458 0.000000 0.000000 0.000000 -7.125000 0.000000 0.000000 -6.762487 34.716354 -1.717407 0.000000 0.000000 0.000000 -6.540335 33.789969 19.476062 -58.087146 -55.766319 -32.757153 -13.336551 4.008948 7.273853 0.000000 0.000000 0.000000 7.125000 0.000000 0.000000 11.412700 37.233575 2.218694
2.576553 14.645489 -4.067235 176.344800 -22.592099 -176.426252 0.000000 0.000000 0.000000 -8.114456 -4.914651 -7.591796 21.982748 19.903576 95.806304 -0.599386 15.786782 2.832564 0.029855 1.115465 3.066656 0.000000 0.000000 0.000000 1.293172 19.640166 -47.836710 -12.189897 -18.468660 66.588140 -0.138686 -2.889769 6.625449 -2.255808 9.379590 -26.990146 -6.904581 -5.017031 7.981830 0.277056 -7.468464 4.493730 4.574956 -4.032300 1.141394 -1.841773 1.494379 -31.186641 1.420790 -2.294912 44.932952 -0.148163 -2.250502 27.014722 0.000000 0.000000 0.000000 40.563738 30.804098 -62.362020 86.885469 -59.959020 57.303132 18.565260 21.643589 -5.103401 0.000000 0.000000 0.000000 -7.125000 0.000000 0.000000 -6.751362 35.296255 -1.618630 0.000000 0.000000 0.000000 -6.346789 31.970057 20.077886 -56.948285 -55.437266 -31.815314 -13.634191 4.298367 7.590594 0.000000 0.000000 0.000000 7.125000 0.000000 0.000000 11.221240 37.570686 2.084292
2.584979 14.598477 -4.142801 176.683389 -22.428054 -176.706130 0.000000 0.000000 0.000000 -8.056182 -5.208929 -8.586220 22.414363 19.853588 97.077123 -0.666917 16.180110 2.157979 0.027995 1.079047 2.966427 0.000000 0.000000 0.000000 1.771161 19.767292 -47.914327 -12.470747 -18.579520 67.470015 -0.120540 -2.547794 6.147447 -2.302082 9.468186 -27.271640 -6.591439 -4.896652 8.349046 0.309898 -7.333791 4.696000 4.460598 -3.974057 1.096365 -1.783067 1.416227 -31.375813 1.361887 -2.267389 44.704439 -0.166554 -2.196835 26.818201 0.000000 0.000000 0.000000 39.343285 29.986439 -61.644956 85.170661 -59.896635 55.819616 18.647271 21.480841 -5.642425 0.000000 0.000000 0.000000 -7.125000 0.000000 0.000000 -6.746435 35.864441 -1.523429 0.000000 0.000000 0.000000 -6.195133 30.128280 20.719217 -55.838780 -55.084169 -30.905386 -13.772888 4.590612 7.860984 0.000000 0.000000 0.000000 7.125000 0.000000 0.000000 11.154428 37.852283 1.992971
2.593242 14.551972 -4.218223 177.006920 -22.276555 -176.958492 0.000000 0.000000 0.000000 -8.015566 -5.525302 -9.612603 22.841989 19.800130 98.337339 -0.733832 16.568878 1.485886 0.025827 1.036468 2.849245 0.000000 0.000000 0.000000 2.228808 19.879935 -47.998789 -12.746668 -18.686191 68.334018 -0.102094 -2.211993 5.652580 -2.348178 9.555960 -27.550915 -6.288359 -4.782741 8.688978 0.339919 -7.205156 4.892000 4.345542 -3.918881 1.062335 -1.719015 1.340477 -31.559338 1.300862 -2.242276 44.478580 -0.188478 -2.144154 26.624123 0.000000 0.000000 0.000000 38.149493 29.148080 -60.954579 83.459096 -59.825098 54.339186 18.728542 21.311673 -6.179052 0.000000 0.000000 0.000000 -7.125000 0.000000 0.000000 -6.742754 36.430273 -1.428946 0.000000 0.000000 0.000000 -6.051896 28.282109 21.368487 -54.735176 -54.726240 -30.001872 -13.879641 4.883426 8.122059 0.000000 0.000000 0.000000 7.125000 0.000000 0.000000 11.112668 38.122724 1.910309
2.601282 14.506245 -4.293630 177.292229 -22.160169 -177.143609 0.000000 0.000000 0.000000 -8.016710 -5.898453 -10.714509 23.258512 19.740264 99.568183 -0.798257 16.943453 0.834315 0.023422 0.986230 2.710984 0.000000 0.000000 0.000000 2.634720 19.955815 -48.113558 -13.014708 -18.785947 69.169617 -0.084139 -1.897919 5.123265 -2.393021 9.640468 -27.820468 -6.012415 -4.684452 8.969706 0.362741 -7.091810 5.063243 4.232945 -3.869970 1.040390 -1.651348 1.269057 -31.725512 1.243120 -2.227408 44.266330 -0.213636 -2.097055 26.442146 0.000000 0.000000 0.000000 37.021186 28.285616 -60.328673 81.778490 -59.734688 52.886828 18.799425 21.155430 -6.673255 0.000000 0.000000 0.000000 -7.125000 0.000000 0.000000 -6.744243 36.951411 -1.342774 0.000000 0.000000 0.000000 -5.925756 26.456476 22.016584 -53.675805 -54.368946 -29.137991 -13.868397 5.153465 8.318599 0.000000 0.000000 0.000000 7.125000 0.000000 0.000000 11.158802 38.319829 1.863031
2.608971 14.461744 -4.369011 177.517187 -22.099226 -177.222549 0.000000 0.000000 0.000000 -8.083788 -6.361254 -11.935664 23.657506 19.670281 100.752650 -0.858750 17.295615 0.215148 0.020640 0.923896 2.539443 0.000000 0.000000 0.000000 2.958947 19.973648 -48.276183 -13.270301 -18.874785 69.960366 -0.066960 -1.618153 4.539560 -2.435886 9.719817 -28.074671 -5.779318 -4.610830 9.156953 0.374193 -7.002604 5.195396 4.124229 -3.830950 1.037527 -1.577970 1.204474 -31.864291 1.190562 -2.228716 44.075565 -0.243903 -2.058771 26.279277 0.000000 0.000000 0.000000 35.996276 27.385087 -59.804561 80.146766 -59.614479 51.478793 18.853906 21.019596 -7.100471 0.000000 0.000000 0.000000 -7.125000 0.000000 0.000000 -6.753896 37.401982 -1.269724 0.000000 0.000000 0.000000 -5.826611 24.663272 22.662828 -52.686275 -54.012653 -28.336690 -13.670843 5.387545 8.413246 0.000000 0.000000 0.000000 7.125000 0.000000 0.000000 11.343718 38.401141 1.871620
2.616661 14.417243 -4.444392 177.742145 -22.038282 -177.301489 0.000000 0.000000 0.000000 -8.150867 -6.824054 -13.156820 24.056500 19.600299 101.937116 -0.919243 17.647776 -0.404019 0.017859 0.861562 2.367902 0.000000 0.000000 0.000000 3.283173 19.991481 -48.438807 -13.525895 -18.963624 70.751114 -0.049782 -1.338387 3.955855 -2.478751 9.799166 -28.328874 -5.546220 -4.537207 9.344200 0.385646 -6.913397 5.327548 4.015512 -3.791930 1.034664 -1.504593 1.139890 -32.003070 1.138003 -2.230025 43.884801 -0.274170 -2.020488 26.116407 0.000000 0.000000 0.000000 34.971366 26.484559 -59.280449 78.515041 -59.494269 50.070759 18.908387 20.883762 -7.527688 0.000000 0.000000 0.000000 -7.125000 0.000000 0.000000 -6.763548 37.852553 -1.196674 0.000000 0.000000 0.000000 -5.727465 22.870069 23.309072 -51.696745 -53.656360 -27.535389 -13.473289 5.621624 8.507892 0.000000 0.000000 0.000000 7.125000 0.000000 0.000000 11.528633 38.482454 1.880209
